<?xml version="1.0" encoding="utf-8"?>
<!-- Generator: Adobe Illustrator 16.0.0, SVG Export Plug-In . SVG Version: 6.00 Build 0)  -->
<!DOCTYPE svg PUBLIC "-//W3C//DTD SVG 1.1//EN" "http://www.w3.org/Graphics/SVG/1.1/DTD/svg11.dtd">
<svg version="1.1" id="Layer_1" xmlns="http://www.w3.org/2000/svg" xmlns:xlink="http://www.w3.org/1999/xlink" x="0px" y="0px"
	 width="60.047px" height="108.963px" viewBox="0 0 60.047 108.963" enable-background="new 0 0 60.047 108.963"
	 xml:space="preserve">
<path id="Neck" fill="#909090" d="M26.902,55.022c-1.529-1.104-3.096-2.145-4.807-2.95c-0.652,1.566-1.307,3.132-1.953,4.701
	c-0.021,0.052-0.062,0.196-0.076,0.292c0.015,0.021,0.027,0.039,0.042,0.059c0.005-0.006,0.009-0.008,0.015-0.017
	c-0.002,0.013-0.002,0.021-0.004,0.033c0.152,0.213,0.279,0.373,0.323,0.405c0.878,0.622,1.712,1.306,2.735,1.699
	c3.121,1.199,6.398,1.539,9.719,1.836c-0.032-0.094-0.039-0.154-0.07-0.197C31.151,58.625,29.179,56.67,26.902,55.022z"/>
<path id="g" fill="#0C0C0C" d="M55.28,70.72c-3.055-3.747-7.012-6.191-11.546-7.746c-1.182-0.405-2.385-0.736-3.578-1.101
	c-0.829,0.018-1.622-0.243-2.434-0.355c-1.353-0.189-2.707-0.319-4.067-0.394c-0.379-0.02-0.497-0.087-0.51-0.502
	c-0.042-1.452-0.433-2.841-0.935-4.196c-0.109-0.343-0.281-0.494-0.297-0.521c-0.899-0.668-1.6-1.538-2.338-2.361
	c-2.446-2.722-4.589-5.652-5.949-9.081c-2.497-6.298-1.203-11.886,3.26-16.835c3.023-3.352,6.743-5.768,10.714-7.828
	c4.663-2.421,9.563-4.234,14.624-5.632c0.091-0.026,0.188-0.035,0.283-0.053c0.088-0.134,0.225-0.084,0.347-0.091
	c0.142-0.129,0.284-0.256,0.427-0.388c1.299-1.2,2.455-2.507,3.063-4.208c0.5-1.402,0.5-2.791-0.166-4.152
	c-0.155-0.321-0.372-0.557-0.69-0.74c-2.036-1.169-4.061-2.358-6.091-3.541c-0.834-0.486-1.666-0.394-2.457,0.292
	c1.658,1.121,3.05,2.483,3.9,4.322c0.847,1.835,1.037,3.736,0.543,5.806c-0.174-0.243-0.283-0.395-0.39-0.549
	C44.921,2.151,34.962-1.74,24.794,0.733C17.425,2.524,11.816,6.688,8.257,13.458C6.506,16.786,5.51,20.358,5.027,24.07
	c-0.818,6.321,0.342,12.23,3.83,17.622c1.685,2.602,3.982,4.585,6.513,6.313c0.456,0.311,0.401,0.476,0.076,0.838
	c-2.847,3.166-5.677,6.35-8.505,9.53c-0.137,0.154-0.349,0.281-0.349,0.514c0.004,1.531-0.177,3.063,0.584,4.523
	c1.21,2.325,3.126,3.808,5.45,4.857c0.781,0.352,1.598,0.604,2.434,0.846c-0.117,0.231-0.315,0.285-0.471,0.389
	c-4.536,3.023-9.072,6.041-13.611,9.06c-0.254,0.168-0.479,0.317-0.539,0.688c-0.452,2.872-0.613,5.746-0.205,8.636
	c0.63,4.46,2.495,8.3,5.748,11.444c2.408,2.323,5.26,3.919,8.334,5.16c0.414-0.199,0.816-0.429,1.246-0.587
	c0.379-0.138,0.582-0.343,0.514-0.758c-0.067-0.409,0.126-0.615,0.491-0.78c0.993-0.449,1.979-0.914,2.876-1.541
	c0.155-0.107,0.355-0.17,0.344-0.412c-3.661-1.658-6.469-4.248-8.172-7.888c-2.489-5.32-1.864-10.455,1.338-15.287
	c2.174-3.282,5.187-5.644,8.651-7.459c0.325-0.17,0.622-0.145,0.929,0.013c1.237-0.05,2.44,0.227,3.658,0.359
	c2.457,0.27,4.897,0.662,7.321,1.143c1.2,0.237,2.426,0.317,3.605,0.659c9.628,1.787,13.83,8.75,13.275,16.053
	c-0.445,5.844-3.687,10.743-10.218,12.336c-0.095,0.023-0.185,0.059-0.276,0.089c0.186,0.502,0.672,0.645,1.07,0.875
	c0.567,0.325,1.135,0.662,1.738,0.902c0.586,0.233,1.053,0.464,0.89,1.218c-0.058,0.262,0.15,0.366,0.349,0.463
	c0.465,0.229,0.928,0.465,1.389,0.697c3.984-1.457,7.171-3.999,9.809-7.263C61.627,89.3,61.689,78.584,55.28,70.72z M23.178,59.243
	c-1.023-0.393-1.857-1.077-2.735-1.699c-0.044-0.032-0.171-0.192-0.323-0.405c-0.003-0.005-0.007-0.01-0.011-0.016
	c-0.014-0.02-0.027-0.038-0.042-0.059c-0.321-0.458-0.734-1.126-0.827-1.5c-0.385-1.555,0.017-3.035,0.523-4.497
	c0.073-0.215,0.183-0.21,0.343-0.117c0.654,0.387,1.376,0.66,1.99,1.121c1.711,0.805,3.277,1.846,4.807,2.95
	c2.276,1.647,4.249,3.603,5.924,5.859c0.031,0.043,0.038,0.103,0.07,0.197C29.576,60.782,26.299,60.442,23.178,59.243z"/>
<path id="Streak" fill="#F8F7F4" d="M37.601,19.799c-3.971,2.06-7.69,4.476-10.714,7.828c-4.463,4.949-5.757,10.537-3.26,16.835
	c1.36,3.428,3.503,6.359,5.949,9.081c0.738,0.824,1.438,1.693,2.338,2.361c0.001,0,0.001,0.001,0.002,0.001
	c0.004-0.326-0.179-0.585-0.319-0.854c-0.869-1.656-1.632-3.353-2.147-5.159c-1.369-4.779-1.182-9.47,0.791-14.052
	c1.653-3.841,4.174-7.084,7.07-10.053c3.962-4.062,8.445-7.466,13.258-10.454c0.647-0.403,1.293-0.813,1.939-1.22
	c-0.095,0.018-0.192,0.027-0.283,0.053C47.164,15.565,42.264,17.378,37.601,19.799z"/>
<path id="Stand" fill-rule="evenodd" clip-rule="evenodd" fill="#79563C" d="M22.533,69.791c1.237-0.05,2.44,0.227,3.658,0.359
	c2.457,0.27,4.897,0.662,7.321,1.143c1.2,0.237,2.426,0.317,3.605,0.659c-0.361,3.329-0.718,6.658-1.09,9.986
	c-0.154,1.383-0.183,1.415,1.11,1.881c0.402,0.145,0.478,0.32,0.476,0.691c-0.014,2.157-0.06,4.315,0.017,6.469
	c0.037,1-0.09,1.718-1.229,1.877c-0.336,0.047-0.325,0.216-0.137,0.472c0.494,0.676,0.83,1.428,0.936,2.269
	c0.022,0.186,0.065,0.312,0.268,0.383c0.409,0.143,0.636,0.483,0.816,0.853c0.319,0.656,0.396,1.36,0.432,2.075
	c0.034,0.69,0.553,1.35,1.183,1.522c0.186,0.502,0.672,0.645,1.07,0.875c0.567,0.325,1.135,0.662,1.738,0.902
	c0.586,0.233,1.053,0.464,0.89,1.218c-0.058,0.262,0.15,0.366,0.349,0.463c0.465,0.229,0.928,0.465,1.389,0.697
	c0.003,1.31-0.01,2.621,0.014,3.929c0.008,0.366-0.114,0.449-0.46,0.449c-10.033-0.01-20.068-0.011-30.104-0.004
	c-0.37,0-0.501-0.09-0.493-0.483c0.03-1.329,0.021-2.657,0.024-3.987c0.414-0.199,0.816-0.429,1.246-0.587
	c0.379-0.138,0.582-0.343,0.514-0.758c-0.067-0.409,0.126-0.615,0.491-0.78c0.993-0.449,1.979-0.914,2.876-1.541
	c0.155-0.107,0.355-0.17,0.344-0.412c0.662-0.208,1.116-0.842,1.146-1.609c0.033-0.838,0.045-1.805,0.691-2.317
	c0.752-0.598,0.883-1.381,1.172-2.148c0.068-0.178,0.166-0.348,0.26-0.515c0.482-0.845,0.498-0.885-0.448-1.186
	c-0.511-0.162-0.611-0.424-0.606-0.912c0.028-2.061,0.012-4.123,0.015-6.184c0.003-0.5-0.131-1.081,0.079-1.475
	c0.217-0.406,0.864-0.422,1.326-0.595c0.327-0.123,0.434-0.282,0.398-0.634c-0.262-2.412-0.512-4.826-0.742-7.241
	C22.895,73.662,22.625,71.735,22.533,69.791z"/>
<path id="Face" fill-rule="evenodd" clip-rule="evenodd" fill="#909090" d="M52.508,14.115c0.088-0.134,0.225-0.084,0.347-0.091
	c0.791,2.435,1.19,4.93,1.19,7.494c0,1.404,0.034,2.806-0.245,4.196c-0.182,0.92-0.588,1.744-1.01,2.566
	c-0.337,0.664-0.132,1.045,0.63,1.131c0.28,0.031,0.564,0.004,0.979,0.004c-0.568,0.566-1.162,0.666-1.764,0.535
	c-0.433-0.097-0.539,0.058-0.618,0.42c-0.15,0.693-0.158,1.376,0.079,2.048c0.576,1.638,1.295,3.213,2.128,4.735
	c0.452,0.827,0.327,1.231-0.545,1.522c-0.144,0.049-0.292,0.092-0.435,0.148c-1.354,0.525-1.688,1.133-1.353,2.554
	c0.13,0.55-0.173,0.883-0.511,1.195c-0.191,0.177-0.445,0.322-0.696,0.397c-0.414,0.123-0.423,0.284-0.236,0.646
	c0.433,0.832,0.282,1.236-0.579,1.541c-0.559,0.199-0.849,0.497-0.87,1.118c-0.019,0.479-0.049,0.959-0.049,1.439
	c0,1.23-0.486,1.735-1.726,1.827c-2.321,0.171-4.518-0.298-6.619-1.273c-0.729-0.34-0.903-0.308-1.399,0.343
	c-1.203,1.573-1.926,3.359-2.321,5.292c-0.269,1.314-0.369,2.628-0.112,3.955c0.123,0.64,0.412,1.184,0.874,1.656
	c0.676,0.689,1.401,1.319,2.138,1.941c0.143,0.122,0.333,0.205,0.371,0.419c-0.829,0.018-1.622-0.243-2.434-0.355
	c-1.353-0.189-2.707-0.319-4.067-0.394c-0.379-0.02-0.497-0.087-0.51-0.502c-0.042-1.452-0.433-2.841-0.935-4.196
	c-0.059-0.154-0.295-0.52-0.295-0.52c0.004-0.326-0.179-0.585-0.319-0.854c-0.869-1.656-1.632-3.353-2.147-5.159
	c-1.369-4.779-1.182-9.47,0.791-14.052c1.653-3.841,4.174-7.084,7.07-10.053c3.962-4.062,8.445-7.466,13.258-10.454
	C51.216,14.932,51.861,14.521,52.508,14.115z"/>
</svg>
