<?xml version="1.0" encoding="utf-8"?>
<!-- Generator: Adobe Illustrator 16.0.0, SVG Export Plug-In . SVG Version: 6.00 Build 0)  -->
<!DOCTYPE svg PUBLIC "-//W3C//DTD SVG 1.1//EN" "http://www.w3.org/Graphics/SVG/1.1/DTD/svg11.dtd">
<svg version="1.1" id="Layer_1" xmlns="http://www.w3.org/2000/svg" xmlns:xlink="http://www.w3.org/1999/xlink" x="0px" y="0px"
	 width="419.989px" height="182.853px" viewBox="0 0 419.989 182.853" enable-background="new 0 0 419.989 182.853"
	 xml:space="preserve">
<g>
	<path fill-rule="evenodd" clip-rule="evenodd" fill="#909090" d="M202.648,44.625c1.466,0.69,2.809,1.582,4.12,2.528
		c1.95,1.412,3.64,3.087,5.076,5.021c0.027,0.038,0.033,0.088,0.061,0.169c-2.845-0.255-5.654-0.546-8.328-1.574
		c-0.877-0.336-1.592-0.922-2.344-1.455c-0.12-0.087-0.356,0.105-0.274-0.375c-0.113,0.163-0.017-0.202,0.017-0.286
		C201.529,47.309,202.09,45.966,202.648,44.625z"/>
	<path fill-rule="evenodd" clip-rule="evenodd" fill="#0C0C0C" d="M195.982,89.544c-2.634-1.063-5.078-2.431-7.142-4.422
		c-2.788-2.694-4.386-5.984-4.926-9.807c-0.35-2.477-0.211-4.94,0.176-7.401c0.052-0.317,0.245-0.445,0.462-0.589
		c3.89-2.587,7.777-5.173,11.665-7.764c0.133-0.089,0.303-0.135,0.403-0.333c-0.716-0.208-1.416-0.423-2.085-0.725
		c-1.992-0.9-3.633-2.17-4.67-4.163c-0.652-1.251-0.497-2.564-0.5-3.876c0-0.2,0.182-0.309,0.298-0.44
		c2.424-2.726,4.849-5.454,7.289-8.167c0.279-0.311,0.326-0.453-0.065-0.719c-2.168-1.48-4.138-3.18-5.581-5.409
		c-2.99-4.621-3.984-9.685-3.282-15.102c0.413-3.181,1.267-6.243,2.767-9.095c3.05-5.801,7.857-9.369,14.172-10.904
		c8.714-2.12,17.248,1.215,22.452,8.684c0.091,0.132,0.185,0.263,0.334,0.47c0.424-1.773,0.261-3.403-0.465-4.976
		c-0.729-1.576-1.922-2.743-3.343-3.704c0.679-0.588,1.391-0.667,2.105-0.25c1.739,1.013,3.475,2.032,5.22,3.034
		c0.272,0.157,0.458,0.358,0.592,0.634c0.57,1.167,0.57,2.357,0.142,3.559c-0.521,1.458-1.512,2.578-2.624,3.606
		c-0.123,0.113-0.245,0.221-0.366,0.333c-0.104,0.006-0.223-0.037-0.298,0.078c-0.08,0.015-0.164,0.023-0.242,0.045
		c-4.337,1.198-8.536,2.751-12.533,4.827c-3.401,1.765-6.589,3.835-9.18,6.708c-3.825,4.241-4.934,9.03-2.793,14.428
		c1.166,2.938,3.002,5.449,5.098,7.782c0.633,0.707,1.234,1.452,2.005,2.025l-0.008-0.008c-0.004,0.011,0.16,0.143,0.26,0.454
		c0.431,1.162,0.766,2.352,0.802,3.596c0.011,0.355,0.111,0.414,0.437,0.431c1.166,0.063,2.326,0.175,3.484,0.337
		c0.696,0.096,1.376,0.319,2.086,0.304c1.023,0.313,2.055,0.596,3.067,0.944c3.886,1.332,7.276,3.426,9.894,6.637
		c5.493,6.739,5.439,15.922-0.117,22.798c-2.261,2.797-4.991,4.975-8.405,6.224c-0.395-0.199-0.792-0.401-1.19-0.597
		c-0.17-0.083-0.348-0.172-0.298-0.397c0.139-0.646-0.261-0.844-0.764-1.044c-0.517-0.205-1.003-0.495-1.489-0.773
		c-0.341-0.197-0.758-0.32-0.917-0.75c0.079-0.026,0.156-0.058,0.237-0.077c5.597-1.366,8.374-5.564,8.757-10.572
		c0.475-6.258-3.127-12.225-11.377-13.757c-1.011-0.292-2.062-0.361-3.09-0.564c-2.077-0.413-4.168-0.749-6.274-0.979
		c-1.044-0.114-2.075-0.351-3.135-0.308c-0.263-0.135-0.518-0.158-0.796-0.011c-2.969,1.556-5.551,3.58-7.414,6.393
		c-2.744,4.141-3.28,8.541-1.146,13.1c1.459,3.12,3.866,5.338,7.003,6.76c0.01,0.208-0.162,0.261-0.295,0.353
		c-0.769,0.537-1.613,0.936-2.464,1.32c-0.313,0.141-0.479,0.318-0.421,0.668c0.058,0.355-0.115,0.531-0.44,0.649
		C196.682,89.176,196.337,89.373,195.982,89.544z M202.648,44.625c-0.526-0.396-1.145-0.629-1.705-0.96
		c-0.137-0.08-0.231-0.084-0.294,0.1c-0.434,1.252-0.778,2.521-0.448,3.853c0.123,0.498,0.911,1.61,1.031,1.697
		c0.752,0.533,1.467,1.119,2.344,1.455c2.674,1.027,5.483,1.319,8.328,1.574c-0.027-0.081-0.033-0.132-0.061-0.169
		c-1.436-1.934-3.125-3.609-5.076-5.021C205.458,46.207,204.115,45.314,202.648,44.625z"/>
	<path fill-rule="evenodd" clip-rule="evenodd" fill="#79563C" d="M203.024,59.809c1.06-0.043,2.091,0.194,3.135,0.308
		c2.105,0.231,4.197,0.567,6.274,0.979c1.028,0.203,2.079,0.272,3.09,0.564c-0.311,2.853-0.615,5.706-0.934,8.558
		c-0.133,1.186-0.157,1.212,0.951,1.612c0.345,0.124,0.409,0.274,0.406,0.592c-0.012,1.849-0.05,3.698,0.016,5.544
		c0.031,0.857-0.077,1.472-1.054,1.609c-0.287,0.04-0.278,0.185-0.116,0.404c0.423,0.579,0.711,1.223,0.802,1.944
		c0.019,0.16,0.056,0.267,0.229,0.328c0.351,0.123,0.545,0.414,0.7,0.73c0.273,0.562,0.339,1.166,0.37,1.778
		c0.028,0.591,0.473,1.157,1.013,1.305c0.159,0.43,0.576,0.552,0.917,0.75c0.486,0.278,0.973,0.568,1.489,0.773
		c0.503,0.2,0.902,0.398,0.764,1.044c-0.05,0.225,0.128,0.313,0.298,0.397c0.398,0.196,0.796,0.398,1.19,0.597
		c0.003,1.122-0.008,2.246,0.012,3.367c0.007,0.313-0.098,0.384-0.394,0.384c-8.599-0.008-17.198-0.009-25.798-0.003
		c-0.317,0-0.429-0.077-0.422-0.414c0.025-1.139,0.017-2.277,0.021-3.417c0.355-0.171,0.7-0.368,1.068-0.503
		c0.325-0.119,0.498-0.294,0.44-0.649c-0.058-0.351,0.108-0.527,0.421-0.668c0.851-0.385,1.696-0.783,2.464-1.32
		c0.133-0.092,0.305-0.146,0.295-0.353c0.567-0.179,0.957-0.721,0.982-1.379c0.029-0.718,0.039-1.547,0.593-1.985
		c0.645-0.513,0.757-1.184,1.004-1.841c0.059-0.152,0.143-0.297,0.223-0.441c0.413-0.724,0.427-0.758-0.384-1.016
		c-0.438-0.139-0.524-0.364-0.519-0.781c0.024-1.767,0.01-3.534,0.012-5.3c0.002-0.428-0.112-0.926,0.067-1.264
		c0.186-0.348,0.741-0.362,1.137-0.51c0.28-0.105,0.372-0.242,0.342-0.544c-0.225-2.066-0.439-4.136-0.636-6.205
		C203.333,63.125,203.102,61.474,203.024,59.809z"/>
	<path fill-rule="evenodd" clip-rule="evenodd" fill="#909090" d="M228.71,12.096c0.075-0.115,0.193-0.072,0.298-0.078
		c0.678,2.086,1.02,4.225,1.02,6.421c0,1.203,0.029,2.404-0.209,3.596c-0.156,0.789-0.505,1.494-0.866,2.199
		c-0.288,0.569-0.112,0.896,0.54,0.97c0.24,0.026,0.483,0.003,0.839,0.003c-0.486,0.486-0.996,0.571-1.511,0.458
		c-0.37-0.083-0.462,0.049-0.53,0.36c-0.129,0.594-0.136,1.18,0.068,1.755c0.493,1.404,1.109,2.754,1.823,4.058
		c0.388,0.708,0.28,1.055-0.468,1.305c-0.122,0.042-0.249,0.08-0.372,0.127c-1.159,0.45-1.447,0.971-1.158,2.188
		c0.111,0.472-0.148,0.757-0.438,1.024c-0.165,0.151-0.382,0.276-0.598,0.34c-0.354,0.105-0.362,0.243-0.202,0.554
		c0.37,0.713,0.242,1.06-0.496,1.32c-0.479,0.17-0.728,0.425-0.745,0.958c-0.017,0.41-0.043,0.822-0.043,1.233
		c0,1.054-0.417,1.487-1.479,1.565c-1.989,0.147-3.872-0.255-5.672-1.091c-0.624-0.292-0.774-0.264-1.2,0.294
		c-1.03,1.348-1.65,2.878-1.988,4.535c-0.23,1.126-0.317,2.252-0.097,3.39c0.105,0.548,0.353,1.015,0.749,1.419
		c0.579,0.59,1.201,1.13,1.832,1.663c0.122,0.104,0.285,0.176,0.317,0.359c-0.71,0.015-1.39-0.208-2.086-0.304
		c-1.158-0.162-2.318-0.274-3.484-0.337c-0.325-0.017-0.426-0.075-0.437-0.431c-0.036-1.244-0.371-2.434-0.802-3.596
		c-0.05-0.132-0.252-0.445-0.252-0.445c0.003-0.279-0.153-0.501-0.273-0.732c-0.745-1.419-1.399-2.874-1.84-4.421
		c-1.173-4.096-1.013-8.116,0.677-12.042c1.417-3.292,3.577-6.071,6.06-8.615c3.395-3.481,7.236-6.398,11.36-8.959
		C227.603,12.796,228.156,12.444,228.71,12.096z"/>
	<path fill-rule="evenodd" clip-rule="evenodd" fill="#F8F7F4" d="M228.71,12.096c-0.554,0.349-1.107,0.7-1.662,1.045
		c-4.124,2.561-7.966,5.478-11.36,8.959c-2.482,2.543-4.643,5.323-6.06,8.615c-1.69,3.927-1.851,7.946-0.677,12.042
		c0.441,1.547,1.095,3.002,1.84,4.421c0.12,0.23,0.276,0.453,0.273,0.732c-0.771-0.573-1.372-1.318-2.005-2.025
		c-2.096-2.333-3.932-4.844-5.098-7.782c-2.14-5.397-1.031-10.187,2.793-14.428c2.591-2.873,5.779-4.943,9.18-6.708
		c3.997-2.075,8.196-3.629,12.533-4.827C228.546,12.119,228.63,12.111,228.71,12.096z"/>
</g>
<g>
	<path fill="#0C0C0C" stroke="#0C0C0C" stroke-width="0.7" stroke-miterlimit="10" d="M39.565,142.882
		c0.26-1.357,0.26-4.379,0.26-5.982c0-3.824-1.818-4.194-6.428-4.564v-1.974c2.337,0.062,5.583,0.124,8.505,0.124
		c2.467,0,5.583-0.062,7.661-0.124v1.974c-4.415,0.37-5.129,0.679-5.129,4.996c0,4.379,0,6.291,0.52,9.004
		c-3.766,1.234-9.479,2.96-16.037,2.96c-15.712,0-24.802-9.806-24.802-22.758s9.934-22.45,24.412-22.45
		c4.415,0,7.662,0.432,11.427,1.419c1.363,0.37,2.597,0.74,3.831,1.171c0.39,4.132,0.649,6.661,1.039,9.622l-2.467,0.247
		c-1.753-7.031-4.935-9.806-13.765-9.806c-11.687,0-18.958,7.401-18.958,19.366c0,12.335,7.661,20.538,20.257,20.538
		C37.618,146.644,39.241,144.67,39.565,142.882z"/>
	<path fill="#0C0C0C" stroke="#0C0C0C" stroke-width="0.7" stroke-miterlimit="10" d="M61.705,141.093
		c0,2.652,0.195,3.516,0.649,4.132s1.688,1.172,5,1.295v1.974c-1.818-0.062-5.779-0.185-8.375-0.185
		c-2.727,0-5.778,0.124-7.727,0.185v-1.974c3.376-0.185,4.61-0.74,5-1.418c0.325-0.617,0.584-1.912,0.584-3.886v-28.987
		c0-2.282-0.195-3.639-0.909-4.317c-0.714-0.74-2.337-0.987-4.675-1.11v-1.974c1.299,0.062,4.74,0.124,7.597,0.124
		c1.818,0,5.583-0.062,7.077-0.062c9.739,0,17.53,2.467,17.53,11.719c0,4.811-3.506,9.189-10.063,11.102
		c3.311,5.366,6.428,9.683,9.154,12.829c3.376,3.824,6.103,6.044,9.544,6.661l-0.195,1.665c-3.831,0-8.96-1.048-11.751-3.701
		c-2.337-2.158-5.844-6.846-11.817-16.714h-1.753c-1.688,0-3.441-0.062-4.87-0.185V141.093z M78.001,116.793
		c0-6.785-3.961-9.622-12.855-9.622c-0.909,0-2.727,0.062-3.441,0.124v18.626c1.104,0.124,2.857,0.247,4.545,0.247
		C73.976,126.167,78.001,122.59,78.001,116.793z"/>
	<path fill="#0C0C0C" stroke="#0C0C0C" stroke-width="0.7" stroke-miterlimit="10" d="M135.59,148.494
		c-3.766-0.123-6.558-0.185-8.635-0.185s-4.35,0.062-7.986,0.185v-1.974c5.064-0.185,5.584-0.678,5.584-2.159
		c0-0.802-0.649-2.96-1.169-4.379l-2.986-8.511H105.01l-3.246,8.573c-0.649,1.604-1.169,3.516-1.169,4.256
		c0,1.233,0.455,1.85,5.519,2.22v1.974c-3.181-0.123-5.778-0.185-7.401-0.185s-4.61,0.062-7.986,0.185v-1.974
		c3.441-0.432,5.064-0.863,6.817-5.181l9.739-23.93c1.948-4.873,3.116-7.895,4.545-12.15l3.896-1.172
		c1.298,4.132,2.792,8.08,4.285,12.212l8.895,24.547c1.559,4.379,2.597,5.366,6.688,5.674V148.494z M105.984,128.943h13.504
		l-6.493-18.256L105.984,128.943z"/>
	<path fill="#0C0C0C" stroke="#0C0C0C" stroke-width="0.7" stroke-miterlimit="10" d="M147.472,141.093
		c0,1.974,0.325,3.331,0.779,3.947c0.455,0.555,1.558,1.172,5.389,1.48v1.974c-1.817-0.062-6.298-0.185-8.895-0.185
		c-2.727,0-5.778,0.124-7.727,0.185v-1.974c3.376-0.185,4.61-0.74,5-1.418c0.325-0.617,0.584-1.912,0.584-3.886v-28.987
		c0-1.974-0.195-3.269-0.714-4.071c-0.779-1.172-2.272-1.233-4.87-1.357v-1.974c1.299,0.062,4.74,0.124,7.597,0.124
		c1.818,0,6.232-0.062,7.727-0.062c9.738,0,17.14,2.837,17.14,11.719c0,8.635-7.726,12.644-16.231,12.644
		c-1.104,0-2.532-0.062-3.571-0.185l0.325-2.282c0.649,0.124,1.623,0.185,2.208,0.185c6.362,0,11.816-1.665,11.816-9.93
		c0-5.982-4.155-9.868-12.855-9.868c-0.909,0-2.987,0.062-3.701,0.124V141.093z"/>
	<path fill="#0C0C0C" stroke="#0C0C0C" stroke-width="0.7" stroke-miterlimit="10" d="M208.762,124.132v-11.965
		c0-1.974-0.26-3.331-0.585-3.947c-0.39-0.678-1.623-1.233-4.999-1.418v-1.974c1.948,0.062,5.129,0.185,7.856,0.185
		c2.598,0,6.428-0.124,8.182-0.185v1.974c-3.182,0.247-4.48,0.679-4.936,1.295s-0.648,1.542-0.648,4.194v28.803
		c0,2.652,0.193,3.516,0.648,4.132s1.43,1.048,4.936,1.295v1.974c-1.754-0.062-5.584-0.185-8.182-0.185
		c-2.727,0-5.908,0.124-7.856,0.185v-1.974c3.376-0.185,4.609-0.74,4.999-1.418c0.325-0.617,0.585-1.912,0.585-3.886v-14.494
		h-24.997v14.371c0,2.652,0.195,3.516,0.649,4.132s1.429,1.048,4.935,1.295v1.974c-1.753-0.062-5.584-0.185-8.181-0.185
		c-2.728,0-5.908,0.124-7.856,0.185v-1.974c3.376-0.185,4.61-0.74,5-1.418c0.324-0.617,0.584-1.912,0.584-3.886v-29.049
		c0-1.974-0.26-3.331-0.584-3.947c-0.39-0.678-1.624-1.233-5-1.418v-1.974c1.948,0.062,5.129,0.185,7.856,0.185
		c2.597,0,6.428-0.124,8.181-0.185v1.974c-3.182,0.247-4.48,0.679-4.935,1.295s-0.649,1.542-0.649,4.194v11.842H208.762z"/>
	<path fill="#0C0C0C" stroke="#0C0C0C" stroke-width="0.7" stroke-miterlimit="10" d="M224.927,148.494v-1.974
		c3.377-0.185,4.611-0.74,5-1.418c0.324-0.617,0.584-1.912,0.584-3.886v-29.111c0-1.974-0.26-3.269-0.584-3.886
		c-0.389-0.678-1.623-1.233-5-1.418v-1.974c1.949,0.062,6.947,0.185,9.674,0.185c7.014,0,14.805-0.062,20.258-0.185
		c0.26,4.071,0.52,7.216,0.779,9.005l-2.207,0.247c-0.715-2.96-1.623-4.625-2.857-5.613c-1.299-0.986-2.467-1.356-7.012-1.356
		c-2.727,0-6.299,0-8.182,0.123v17.27c4.092,0,7.791-0.124,9.025-0.555c1.104-0.37,2.078-1.295,2.791-5.181h2.143
		c-0.064,1.295-0.324,4.811-0.324,7.462c0,2.776,0.064,5.181,0.131,6.415h-2.143c-0.52-3.701-1.43-4.625-2.533-5.119
		c-1.232-0.555-4.805-0.74-9.09-0.74v14c0,1.11,0.066,2.529,0.52,3.269c0.91,1.542,4.805,2.035,9.285,2.035
		c4.609,0,6.947-0.863,8.506-2.899c0.973-1.295,2.012-3.269,2.791-5.119l2.078,0.494c-0.91,3.701-1.883,6.846-2.922,9.93
		c-5.324-0.062-14.414-0.185-20.777-0.185C232.134,148.309,226.876,148.433,224.927,148.494z"/>
	<path fill="#0C0C0C" stroke="#0C0C0C" stroke-width="0.7" stroke-miterlimit="10" d="M280.245,125.797
		c5.777,3.516,8.375,6.785,8.375,11.225c0,7.278-5.52,12.335-14.283,12.335c-4.352,0-9.025-1.11-10.779-2.467
		c-0.648-2.529-1.297-6.106-1.623-9.004l2.338-0.247c1.494,5.489,3.961,9.066,10.453,9.066c5.713,0,9.285-2.775,9.285-7.339
		c0-4.132-1.949-6.291-6.039-8.758l-5.973-3.639c-4.609-2.775-7.791-6.414-7.791-11.41c0-6.599,5.518-11.41,14.219-11.41
		c3.635,0,6.428,0.678,8.439,1.418c0.195,1.974,0.65,5.982,1.105,8.45l-2.273,0.185c-1.299-5.119-3.377-7.463-8.635-7.463
		c-5.52,0-8.57,3.146-8.57,7.216c0,3.084,2.078,5.859,6.104,8.326L280.245,125.797z"/>
	<path fill="#0C0C0C" stroke="#0C0C0C" stroke-width="0.7" stroke-miterlimit="10" d="M304.526,141.093
		c0,2.652,0.195,3.516,0.65,4.132c0.453,0.617,1.428,1.048,4.934,1.295v1.974c-1.754-0.062-5.584-0.185-8.182-0.185
		c-2.727,0-5.973,0.124-7.92,0.185v-1.974c3.375-0.185,4.609-0.74,5-1.418c0.324-0.617,0.584-1.912,0.584-3.886v-29.049
		c0-1.974-0.26-3.331-0.584-3.947c-0.391-0.678-1.625-1.233-5-1.418v-1.974c1.947,0.062,5.193,0.185,7.92,0.185
		c2.598,0,6.428-0.124,8.182-0.185v1.974c-3.182,0.247-4.48,0.679-4.934,1.295c-0.455,0.617-0.65,1.542-0.65,4.194V141.093z"/>
	<path fill="#0C0C0C" stroke="#0C0C0C" stroke-width="0.7" stroke-miterlimit="10" d="M354.778,132.273
		c0,10.793-5.26,17.084-17.984,17.084c-6.623,0-12.4-2.344-15.453-6.476c-1.688-2.282-2.467-5.674-2.467-10.115v-20.662
		c0-1.974-0.26-3.269-0.584-3.886c-0.389-0.678-1.623-1.233-5-1.418v-1.974c1.949,0.062,5.129,0.185,7.857,0.185
		c2.596,0,6.557-0.124,8.375-0.185v1.974c-3.506,0.247-4.676,0.679-5.129,1.295c-0.455,0.617-0.65,1.48-0.65,4.132
		c-0.064,5.119-0.064,12.89-0.064,18.132c0,4.071,0.52,7.833,1.883,10.053c2.338,3.701,6.623,5.489,12.076,5.489
		c13.311,0,14.154-7.586,14.154-17.516c0-4.132-0.064-12.088-0.26-14.37c-0.52-6.229-1.623-6.97-6.752-7.216v-1.974
		c2.338,0.062,5.129,0.124,8.375,0.124c3.117,0,5.193-0.062,7.662-0.124v1.974c-4.805,0.247-6.104,0.987-6.104,7.463
		C354.714,116.916,354.778,128.511,354.778,132.273z"/>
	<path fill="#0C0C0C" stroke="#0C0C0C" stroke-width="0.7" stroke-miterlimit="10" d="M403.083,111.242
		c0.975-2.097,1.623-4.132,2.338-6.415c1.559,0.062,4.48,0.124,5.777,0.124c2.533,0,3.572-0.062,5.908-0.124v1.974
		c-4.803,0.124-6.102,0.802-6.102,5.489c0,1.295,0.129,7.895,0.973,28.556c0.195,4.687,0.65,5.304,6.168,5.674v1.974
		c-1.883-0.062-5.453-0.123-8.57-0.123c-3.439,0-6.881,0.062-8.83,0.123v-1.974c4.676-0.37,6.104-0.74,6.104-5.674
		c0-3.208-0.324-14.741-0.648-29.235c-4.35,9.56-9.025,18.997-13.246,28.495c-1.232,2.775-2.531,6.106-3.375,8.573h-2.207
		c-0.779-2.467-2.014-5.736-2.857-7.647c-5.26-12.397-7.791-18.997-11.816-28.618c-0.455,9.992-1.559,22.08-1.559,28.865
		c0,4.44,1.623,4.996,6.752,5.242v1.974c-3.375-0.062-6.363-0.123-8.959-0.123c-3.313,0-5.584,0.062-7.598,0.123v-1.974
		c4.221-0.185,5.975-0.863,6.363-5.427c0.65-8.141,2.207-29.049,2.207-30.53c0-3.083-2.012-3.392-6.492-3.762v-1.974
		c1.559,0.062,3.83,0.124,5.779,0.124c1.883,0,3.83-0.062,6.168-0.124c1.039,3.639,2.012,6.167,3.311,9.313
		c5.713,13.877,8.051,19.675,10.844,26.212C393.864,130.855,398.603,121.048,403.083,111.242z"/>
	<path fill="#0C0C0C" d="M68.694,155.014h13.589v1.74h-11.55v7.74h10.26v1.74h-10.26v10.2h-2.04V155.014z"/>
	<path fill="#0C0C0C" d="M86.933,155.014h2.04v21.419h-2.04V155.014z"/>
	<path fill="#0C0C0C" d="M95.393,155.014h2.28l12.479,18.119h0.06v-18.119h2.04v21.419h-2.28l-12.479-18.119h-0.06v18.119h-2.04
		V155.014z"/>
	<path fill="#0C0C0C" d="M118.522,155.014h14.79v1.74h-12.75v7.74h11.939v1.74h-11.939v8.46h12.899v1.74h-14.939V155.014z"/>
	<path fill="#0C0C0C" d="M149.572,169.383c-0.09,4.41,3.09,5.76,6.989,5.76c2.25,0,5.67-1.23,5.67-4.35c0-2.43-2.43-3.39-4.41-3.87
		l-4.77-1.17c-2.52-0.63-4.83-1.83-4.83-5.16c0-2.1,1.35-6.03,7.379-6.03c4.23,0,7.95,2.28,7.92,6.66h-2.04
		c-0.12-3.27-2.819-4.92-5.85-4.92c-2.79,0-5.37,1.08-5.37,4.26c0,2.01,1.5,2.85,3.24,3.27l5.22,1.29c3.03,0.81,5.55,2.13,5.55,5.64
		c0,1.47-0.6,6.12-8.189,6.12c-5.07,0-8.79-2.28-8.55-7.5H149.572z"/>
	<path fill="#0C0C0C" d="M185.151,161.493c-0.72-3.3-3.45-5.19-6.569-5.19c-5.67,0-8.07,4.74-8.07,9.42s2.4,9.419,8.07,9.419
		c3.959,0,6.479-3.06,6.869-6.87h2.04c-0.57,5.25-3.899,8.61-8.909,8.61c-6.75,0-10.11-5.31-10.11-11.16s3.36-11.16,10.11-11.16
		c4.05,0,8.069,2.43,8.609,6.93H185.151z"/>
	<path fill="#0C0C0C" d="M192.382,155.014h2.04v13.259c-0.03,4.98,2.34,6.87,6.27,6.87c3.96,0,6.329-1.89,6.3-6.87v-13.259h2.04
		v13.709c0,4.41-2.37,8.16-8.34,8.16c-5.939,0-8.31-3.75-8.31-8.16V155.014z"/>
	<path fill="#0C0C0C" d="M215.122,155.014h2.039v19.679h12v1.74h-14.039V155.014z"/>
	<path fill="#0C0C0C" d="M233.212,155.014h9.51c3.84,0,6.359,2.25,6.359,6.12c0,3.87-2.52,6.12-6.359,6.12h-7.471v9.18h-2.039
		V155.014z M235.251,165.513h7.02c2.82,0,4.77-1.44,4.77-4.38s-1.949-4.38-4.77-4.38h-7.02V165.513z"/>
	<path fill="#0C0C0C" d="M251.78,155.014h16.979v1.74h-7.469v19.679h-2.041v-19.679h-7.469V155.014z"/>
	<path fill="#0C0C0C" d="M272.54,155.014h2.041v13.259c-0.031,4.98,2.34,6.87,6.27,6.87c3.959,0,6.328-1.89,6.299-6.87v-13.259
		h2.041v13.709c0,4.41-2.371,8.16-8.34,8.16c-5.939,0-8.311-3.75-8.311-8.16V155.014z"/>
	<path fill="#0C0C0C" d="M295.28,155.014h9.809c3.541,0,6.51,1.71,6.51,5.58c0,2.7-1.41,4.92-4.17,5.46v0.06
		c2.791,0.36,3.6,2.28,3.75,4.83c0.09,1.47,0.09,4.41,0.99,5.49h-2.25c-0.51-0.84-0.51-2.43-0.57-3.33c-0.18-3-0.42-6.33-4.289-6.18
		h-7.74v9.51h-2.039V155.014z M297.319,165.183h7.619c2.49,0,4.621-1.56,4.621-4.17s-1.561-4.26-4.621-4.26h-7.619V165.183z"/>
	<path fill="#0C0C0C" d="M317.271,155.014h14.789v1.74h-12.75v7.74h11.939v1.74H319.31v8.46h12.9v1.74h-14.939V155.014z"/>
	<path fill="#0C0C0C" d="M337.999,169.383c-0.09,4.41,3.09,5.76,6.99,5.76c2.25,0,5.67-1.23,5.67-4.35c0-2.43-2.43-3.39-4.41-3.87
		l-4.77-1.17c-2.52-0.63-4.83-1.83-4.83-5.16c0-2.1,1.35-6.03,7.379-6.03c4.23,0,7.951,2.28,7.92,6.66h-2.039
		c-0.121-3.27-2.82-4.92-5.85-4.92c-2.791,0-5.371,1.08-5.371,4.26c0,2.01,1.5,2.85,3.24,3.27l5.221,1.29
		c3.029,0.81,5.549,2.13,5.549,5.64c0,1.47-0.6,6.12-8.189,6.12c-5.07,0-8.789-2.28-8.549-7.5H337.999z"/>
</g>
<g>
	<title>Layer 1</title>
	<title>Layer 1</title>
</g>
</svg>
